<svg xmlns="http://www.w3.org/2000/svg" version="1.0" preserveAspectRatio="xMidYMid meet" viewBox="100.4 399.97 820.7 739.54">
<metadata>
Created by potrace 1.16, written by Peter Selinger 2001-2019
<meta name="Producer" content="Online-Convert"/></metadata>
<g transform="translate(0.000000,1536.000000) scale(0.100000,-0.100000)" fill="#000000" stroke="none">
<path d="M5550 11352 c0 -10 -17 -13 -70 -10 -39 2 -70 1 -70 -2 0 -3 -37 -11 -82 -18 -109 -17 -212 -47 -328 -95 -52 -21 -103 -39 -112 -40 -9 -1 -15 -4 -12 -8 2 -4 -2 -9 -10 -12 -8 -3 -16 2 -19 14 -5 20 -31 26 -41 10 -4 -5 -3 -16 0 -25 5 -13 9 -14 20 -5 8 6 14 8 14 3 0 -9 -81 -64 -94 -64 -4 0 -4 5 0 12 4 7 3 8 -5 4 -6 -4 -9 -11 -6 -16 7 -11 -80 -71 -90 -62 -5 4 -5 2 -1 -5 3 -7 -7 -21 -26 -34 -18 -13 -42 -31 -52 -41 -10 -9 -24 -15 -29 -11 -6 3 -7 2 -4 -4 8 -13 -57 -76 -67 -66 -4 5 -6 1 -4 -7 2 -8 -3 -14 -10 -12 -8 1 -11 -2 -8 -6 3 -5 -4 -18 -16 -28 -12 -11 -18 -13 -13 -5 5 10 4 12 -4 7 -6 -4 -9 -11 -6 -15 7 -12 -30 -43 -40 -34 -4 5 -6 3 -2 -2 7 -13 -5 -28 -76 -93 -31 -29 -62 -50 -67 -47 -6 4 -9 1 -8 -7 2 -7 -5 -12 -14 -12 -10 1 -15 -2 -13 -7 8 -12 -83 -62 -101 -55 -8 3 -13 2 -10 -3 8 -13 -162 -74 -203 -73 -19 0 -29 -3 -23 -7 7 -4 -6 -16 -33 -29 -56 -27 -111 -77 -176 -158 -28 -35 -54 -62 -58 -59 -4 2 -8 -1 -8 -8 0 -21 -35 -67 -46 -60 -5 3 -7 1 -4 -4 9 -14 -117 -158 -273 -313 -110 -109 -127 -131 -138 -173 -16 -62 -15 -87 4 -144 20 -61 54 -105 112 -148 104 -76 229 -101 334 -66 78 26 112 47 222 136 122 99 304 207 336 200 16 -3 20 -2 12 3 -9 6 -6 12 13 20 15 7 31 9 37 6 6 -4 8 -3 5 3 -8 12 59 37 74 27 8 -4 9 -3 5 5 -5 7 3 13 24 17 17 4 33 11 36 15 3 5 10 9 16 9 5 0 -14 -18 -43 -40 -33 -24 -60 -38 -70 -35 -10 3 -20 1 -24 -4 -3 -7 0 -8 9 -5 32 12 15 -5 -31 -32 -60 -35 -150 -103 -187 -143 -16 -17 -34 -28 -39 -24 -6 3 -7 1 -3 -5 8 -14 -68 -98 -122 -135 -56 -38 -148 -65 -234 -68 -42 -2 -75 -6 -72 -10 2 -4 -16 -36 -40 -71 -33 -47 -56 -98 -86 -193 -76 -236 -92 -276 -136 -336 -24 -32 -48 -59 -54 -59 -5 0 -10 -7 -10 -15 0 -8 2 -15 5 -15 15 0 95 47 131 76 22 19 45 30 49 26 5 -4 6 -2 2 3 -3 6 1 21 9 35 l15 25 -5 -25 c-2 -14 -8 -52 -12 -85 -9 -78 -38 -156 -69 -185 -41 -38 -31 -54 15 -24 63 42 126 152 151 266 6 32 15 56 18 53 4 -2 5 11 3 28 -4 40 31 216 61 299 l22 63 100 2 c108 2 137 4 145 14 3 4 25 17 50 29 51 26 107 67 162 118 22 21 41 31 49 27 7 -5 10 -4 6 2 -9 14 19 37 34 27 7 -4 9 -3 5 4 -8 13 33 44 47 35 6 -3 7 -2 4 4 -4 5 24 31 62 56 69 47 88 57 75 35 -4 -7 -3 -8 5 -4 6 4 9 11 6 15 -2 5 40 40 94 79 91 67 190 161 228 218 8 13 19 21 24 18 5 -3 8 -2 7 3 -2 4 16 46 39 93 23 47 58 143 78 214 42 145 68 208 124 301 145 239 394 386 656 387 105 1 197 -10 190 -22 -3 -5 0 -12 6 -16 8 -5 9 -3 4 6 -14 23 53 4 142 -41 95 -47 207 -149 242 -217 l22 -43 -55 51 c-56 54 -61 58 -137 99 -24 13 -46 26 -49 30 -3 3 -12 8 -20 10 -8 2 -44 12 -80 22 -35 11 -79 19 -97 19 -17 0 -34 4 -37 8 -8 13 -194 -13 -264 -37 -94 -32 -235 -122 -212 -136 5 -3 26 3 47 14 62 31 248 58 257 37 3 -7 5 -7 5 0 1 15 117 1 174 -21 26 -10 44 -21 41 -26 -3 -5 3 -6 12 -2 13 5 15 3 9 -7 -5 -9 -4 -11 4 -6 15 10 92 -40 88 -57 -1 -6 3 -11 10 -10 18 4 73 -65 66 -82 -3 -10 -1 -15 7 -13 19 4 61 -118 57 -167 -1 -27 -6 -39 -15 -37 -8 1 -11 -2 -7 -8 3 -6 11 -8 16 -5 16 11 10 -109 -11 -189 -24 -96 -69 -198 -83 -189 -6 3 -7 1 -3 -5 8 -14 -52 -112 -67 -109 -7 1 -11 -4 -9 -12 4 -19 -78 -122 -92 -114 -6 3 -8 3 -4 -2 10 -10 -41 -75 -59 -75 -8 0 -12 -4 -9 -9 7 -11 -81 -92 -151 -139 -29 -19 -53 -37 -53 -39 0 -2 4 -2 10 2 5 3 45 -29 88 -72 57 -57 87 -97 111 -146 18 -38 30 -75 27 -83 -3 -8 -2 -13 3 -10 5 3 14 -8 20 -25 9 -28 9 -30 -7 -25 -14 5 -14 4 2 -9 42 -33 48 -238 10 -390 -7 -30 -7 -30 14 -12 12 11 26 16 33 11 7 -4 10 -3 6 3 -7 11 68 66 90 66 6 0 11 3 10 7 -4 13 85 80 95 73 6 -3 8 -2 5 4 -3 5 33 45 80 89 95 87 270 282 365 408 34 45 65 80 70 78 5 -1 7 2 3 8 -6 10 22 59 29 50 3 -3 8 -1 13 4 5 5 3 6 -4 2 -19 -10 -16 2 7 34 11 16 47 83 79 149 32 66 62 117 66 113 5 -4 5 -1 1 5 -4 7 4 47 18 88 53 158 69 273 71 500 1 116 -2 213 -7 216 -4 3 -9 24 -11 47 -1 23 -5 42 -9 42 -5 0 -8 7 -8 16 0 9 -16 56 -36 105 -19 49 -32 94 -28 101 4 6 3 8 -4 4 -13 -8 -65 82 -55 97 3 5 1 7 -4 4 -6 -4 -18 4 -27 18 -18 27 -21 39 -8 31 5 -3 9 2 9 10 0 9 -4 11 -10 5 -10 -10 -164 145 -160 161 2 4 -1 7 -6 5 -8 -2 -101 60 -101 68 0 3 8 2 18 -1 14 -5 14 -4 2 4 -8 6 -18 9 -22 6 -12 -8 -58 27 -51 39 3 6 1 7 -6 3 -6 -4 -44 10 -84 32 -39 22 -93 47 -119 57 -27 10 -48 22 -48 27 0 5 -4 7 -9 3 -5 -3 -48 6 -96 20 -47 13 -115 27 -150 31 -35 4 -63 9 -61 13 2 3 -28 4 -66 3 -51 -3 -73 0 -79 10 -7 11 -9 11 -9 0z"/>
<path d="M1015 9367 c-2 -6 -6 -43 -8 -82 l-3 -70 49 -1 c32 -1 54 -7 61 -16 6 -8 17 -13 25 -10 8 3 11 0 7 -7 -4 -6 -2 -9 7 -5 19 7 111 -92 103 -112 -3 -8 -2 -13 3 -10 14 9 33 -47 38 -114 3 -48 2 -61 -6 -50 -9 13 -11 13 -11 -2 0 -10 5 -18 10 -18 16 0 13 -307 -2 -313 -10 -4 -10 -6 0 -6 15 -1 17 -151 2 -151 -5 0 -10 -9 -10 -20 0 -11 4 -20 8 -20 14 0 14 -110 0 -128 -10 -12 -10 -14 0 -8 9 5 12 -7 12 -49 0 -42 -3 -54 -12 -49 -10 6 -10 4 0 -7 15 -16 17 -229 2 -229 -5 0 -10 -8 -10 -17 0 -15 2 -16 10 -3 6 10 10 -46 10 -167 0 -136 -3 -183 -12 -186 -10 -4 -10 -6 0 -6 9 -1 12 -27 12 -93 0 -64 -3 -88 -10 -78 -8 12 -10 10 -10 -8 0 -13 4 -20 10 -17 6 4 10 -43 10 -134 0 -87 -4 -141 -10 -141 -5 0 -10 -12 -10 -26 0 -14 4 -23 10 -19 6 3 10 -3 10 -14 0 -12 -4 -21 -10 -21 -5 0 -10 -10 -9 -22 0 -22 1 -22 10 -3 6 13 8 -34 6 -135 -3 -150 -4 -157 -32 -208 -45 -82 -109 -126 -205 -141 l-45 -6 -3 -88 -3 -87 143 -1 c89 0 135 -4 123 -9 -17 -7 -14 -9 15 -10 53 -3 85 1 88 11 2 5 38 8 80 7 l77 -2 -75 -6 -75 -6 93 -4 c84 -5 112 0 80 13 -7 3 146 6 341 6 332 1 353 0 347 -16 -5 -16 -5 -16 6 -2 7 9 19 18 27 20 10 4 14 26 15 89 l0 85 -62 7 c-34 4 -68 10 -74 15 -7 4 -19 8 -27 10 -21 3 -84 56 -109 93 -42 63 -45 93 -47 608 l-2 492 241 0 c262 0 334 -7 401 -41 53 -27 105 -78 108 -107 0 -11 4 -19 8 -16 9 5 37 -66 45 -116 6 -37 14 -45 39 -40 8 1 91 8 118 10 4 0 6 206 5 458 l-3 457 -73 3 c-53 2 -71 6 -66 15 5 9 4 9 -6 0 -6 -6 -14 -33 -16 -60 -3 -26 -9 -64 -14 -83 -13 -47 -69 -123 -86 -116 -7 3 -16 0 -20 -6 -5 -7 -2 -8 7 -4 8 4 3 -1 -11 -13 -56 -45 -118 -54 -385 -57 -152 -1 -255 2 -262 8 -7 5 -16 8 -20 5 -6 -4 -9 760 -4 1021 l1 53 338 -4 c291 -3 345 -6 392 -22 61 -20 130 -60 130 -75 0 -6 7 -10 15 -10 16 0 62 -57 57 -71 -1 -5 3 -9 9 -9 15 0 55 -97 69 -166 l12 -59 71 1 72 1 5 79 c3 43 3 197 0 341 -3 145 -2 276 1 292 4 19 2 32 -6 35 -6 2 -487 4 -1069 5 -825 0 -1058 -2 -1061 -12z"/>
<path d="M6975 9372 l-100 -3 2 -52 c1 -29 2 -62 2 -73 1 -17 9 -23 42 -28 49 -8 110 -37 130 -63 13 -16 12 -17 -3 -5 -14 12 -16 11 -11 -8 4 -15 12 -20 24 -17 22 6 52 -25 76 -78 17 -38 18 -102 21 -1027 2 -791 0 -988 -10 -988 -10 0 -10 -2 0 -9 11 -7 13 -46 10 -192 l-3 -184 -31 -55 c-41 -73 -105 -123 -148 -116 -22 4 -25 3 -12 -2 19 -8 18 -9 -5 -15 -13 -4 -39 -7 -57 -7 l-34 0 5 -84 c3 -46 10 -92 16 -102 5 -11 11 -13 11 -6 0 9 70 12 318 11 174 -1 301 -5 282 -9 l-35 -7 38 -2 c20 0 37 4 37 9 0 6 71 9 198 8 140 -1 175 -3 122 -8 -100 -9 -82 -11 78 -12 142 0 196 11 71 14 -55 2 -42 3 51 8 l125 5 3 86 3 86 -67 6 c-113 11 -202 65 -245 148 -32 63 -37 149 -38 627 l0 444 292 -5 c289 -4 353 -10 325 -29 -9 -7 -8 -8 6 -4 25 9 96 -34 130 -79 35 -45 62 -108 71 -162 6 -36 10 -43 30 -43 13 0 26 -6 28 -12 4 -10 6 -10 6 0 1 8 17 12 46 12 l45 0 1 73 c0 39 0 126 1 192 0 102 3 121 17 127 14 6 14 7 -1 7 -16 1 -17 20 -16 236 1 208 3 235 17 235 14 1 14 2 1 13 -8 7 -15 19 -15 27 0 11 -14 16 -55 18 -30 2 -58 9 -62 15 -6 9 -8 9 -8 0 0 -6 -7 -13 -16 -15 -12 -2 -17 -18 -21 -63 -8 -110 -72 -195 -179 -235 -54 -20 -78 -21 -349 -23 l-290 -2 -2 543 -1 543 390 -3 c362 -3 391 -4 403 -21 9 -13 14 -14 17 -6 3 10 19 7 61 -10 33 -14 54 -28 50 -34 -3 -5 -2 -7 4 -4 16 10 53 -22 47 -41 -5 -13 -4 -14 4 -3 8 11 11 11 18 0 5 -8 9 -18 9 -24 1 -5 6 -9 13 -8 28 6 127 -169 153 -270 l11 -47 95 0 94 0 -8 243 c-4 133 -8 313 -8 400 0 97 -4 157 -10 158 -29 2 -2126 4 -2210 1z"/>
<path d="M4818 9268 c-95 -9 -144 -22 -227 -59 -35 -16 -68 -26 -74 -22 -5 3 -7 2 -4 -4 3 -5 -8 -18 -26 -28 -18 -10 -45 -29 -62 -43 -27 -23 -29 -23 -37 -6 -7 16 -8 16 -4 -3 2 -14 -6 -31 -25 -49 -16 -15 -29 -24 -29 -20 0 5 -7 3 -15 -4 -8 -7 -13 -16 -10 -20 8 -12 -35 -61 -47 -54 -7 4 -8 2 -4 -4 3 -6 -7 -33 -24 -61 -105 -171 -124 -391 -50 -592 36 -96 41 -125 22 -121 -8 1 -11 -2 -7 -8 5 -8 11 -8 21 1 11 9 16 7 23 -12 5 -13 6 -28 3 -34 -3 -5 -1 -7 3 -3 8 8 78 -107 78 -129 0 -7 5 -9 10 -6 6 4 8 -1 4 -11 -4 -10 -3 -15 3 -11 11 7 32 -29 23 -39 -3 -3 -1 -6 5 -6 12 0 68 -77 61 -84 -2 -3 -40 -28 -84 -57 -110 -71 -214 -158 -276 -229 -28 -33 -56 -57 -62 -53 -6 3 -7 1 -3 -5 4 -7 -6 -31 -22 -54 -50 -73 -102 -187 -123 -267 -16 -59 -20 -104 -19 -206 3 -166 4 -185 11 -185 4 0 12 -20 19 -45 7 -24 31 -75 53 -112 22 -38 40 -73 40 -80 0 -7 4 -10 8 -7 13 8 49 -52 39 -64 -7 -9 -7 -9 2 -2 12 10 135 -86 130 -102 -1 -5 2 -7 7 -4 5 4 31 -7 58 -22 125 -74 264 -111 448 -119 255 -11 511 69 728 230 41 31 78 53 83 49 4 -4 4 -2 1 4 -4 7 5 19 19 29 20 13 28 14 40 5 7 -7 11 -17 7 -23 -3 -6 -1 -7 6 -3 15 10 43 -13 34 -27 -3 -5 -2 -7 3 -4 6 3 29 -9 52 -27 78 -63 174 -119 254 -152 43 -17 74 -34 66 -36 -7 -3 3 -5 22 -5 19 0 78 -5 131 -13 111 -15 230 -4 346 31 70 22 255 113 274 135 7 9 7 24 0 51 -6 21 -11 62 -11 92 0 43 -3 51 -13 42 -8 -6 -42 -18 -77 -27 -172 -44 -412 60 -595 259 -110 119 -125 137 -125 147 0 13 78 132 94 142 6 4 8 8 4 8 -4 0 14 35 39 78 25 42 95 175 154 294 124 247 176 337 228 392 46 49 109 89 127 82 8 -3 12 -2 9 4 -6 9 30 18 95 22 l35 3 -3 78 c-2 50 0 77 7 77 6 0 11 5 11 11 0 5 -4 7 -10 4 -5 -3 -10 0 -10 8 0 8 -9 22 -20 32 -11 10 -20 13 -20 7 0 -6 6 -13 13 -16 6 -3 -9 -4 -35 -4 -27 1 -48 5 -48 10 0 4 -8 8 -17 8 -15 0 -16 -2 -3 -10 10 -7 -117 -9 -376 -7 -400 2 -414 1 -414 -35 0 -9 3 -9 10 2 7 10 8 -14 4 -72 l-7 -87 39 -6 c53 -9 106 -26 122 -38 11 -8 11 -12 0 -20 -9 -6 -8 -7 4 -3 12 4 24 -3 35 -21 25 -37 23 -204 -2 -288 -31 -107 -106 -275 -119 -268 -6 3 -8 2 -4 -2 9 -10 -27 -75 -87 -158 -36 -48 -44 -55 -55 -43 -6 9 -8 21 -4 27 4 7 3 9 -4 5 -13 -8 -186 200 -177 214 4 6 2 9 -4 8 -12 -4 -449 539 -440 546 31 23 81 46 89 41 6 -4 9 -2 8 3 -2 5 40 38 92 73 109 73 220 179 273 259 59 89 78 158 86 302 3 69 3 124 0 122 -9 -5 -29 94 -23 113 4 13 3 14 -3 5 -11 -15 -47 53 -37 70 4 6 3 8 -3 5 -5 -3 -29 21 -53 54 -24 33 -71 81 -104 106 -34 25 -61 50 -61 56 0 6 -7 12 -15 14 -13 4 -13 3 0 -7 13 -10 12 -11 -3 -6 -10 3 -21 6 -23 6 -3 0 -2 5 2 12 4 6 3 8 -4 4 -13 -8 -63 14 -57 24 3 5 -5 8 -18 8 -12 -1 -58 9 -102 21 -89 24 -182 30 -297 19z m190 -259 c18 -6 29 -16 25 -22 -4 -6 -1 -7 6 -3 19 12 85 -37 120 -90 34 -52 55 -116 48 -145 -3 -11 -1 -19 4 -19 12 0 3 -119 -14 -165 l-14 -40 -8 54 c-12 85 -40 157 -91 227 -38 55 -48 63 -61 53 -12 -10 -16 -10 -24 2 -7 12 -9 12 -10 -1 -1 -8 -1 -18 0 -22 1 -12 -60 -58 -70 -52 -5 3 -8 1 -7 -4 2 -6 -19 -27 -46 -47 -39 -30 -50 -35 -58 -24 -9 14 -4 -14 10 -50 3 -9 1 -12 -6 -7 -8 5 -10 2 -6 -8 3 -9 10 -14 14 -11 4 3 11 -2 14 -11 9 -23 7 -36 -4 -29 -6 3 -7 -1 -4 -9 3 -9 9 -14 14 -11 4 2 20 -28 35 -68 15 -40 39 -94 52 -120 13 -26 21 -53 17 -59 -4 -6 -3 -8 3 -5 11 7 53 -74 53 -103 0 -10 -5 -22 -12 -26 -7 -5 -8 -2 -3 7 5 8 6 12 2 9 -3 -3 -6 -9 -7 -15 -5 -24 -22 -45 -32 -39 -6 4 -8 3 -5 -3 4 -6 1 -16 -7 -22 -11 -9 -21 -2 -48 36 -74 102 -99 144 -93 153 4 6 1 9 -6 8 -7 -2 -35 42 -66 102 -59 117 -80 210 -70 315 7 70 30 141 46 138 5 -2 8 3 5 11 -7 17 44 78 58 69 7 -3 8 -1 4 5 -9 15 30 34 57 27 16 -5 18 -4 8 3 -11 8 -10 11 5 15 37 9 141 7 172 -4z m-368 -1455 c47 -63 84 -119 83 -124 -2 -6 3 -9 10 -7 6 1 11 -4 10 -10 -2 -7 1 -13 7 -13 16 0 91 -101 83 -112 -3 -6 -2 -8 4 -5 14 9 96 -90 87 -105 -4 -6 -3 -8 3 -5 12 8 126 -117 116 -127 -3 -3 -1 -6 5 -6 7 0 11 -5 9 -12 -1 -7 4 -12 11 -13 18 0 62 -56 55 -68 -3 -6 -2 -7 4 -4 9 6 169 -169 171 -187 0 -5 6 -13 14 -18 9 -6 6 -7 -9 -3 -18 5 -22 3 -17 -9 5 -12 2 -15 -12 -9 -11 4 -15 3 -11 -4 8 -12 -40 -36 -55 -27 -6 4 -8 2 -5 -3 7 -10 -9 -18 -83 -43 -61 -20 -236 -24 -320 -6 -125 27 -303 126 -283 159 3 5 1 7 -5 3 -6 -3 -27 13 -47 36 -119 139 -162 384 -101 575 36 112 123 240 155 228 9 -3 12 -3 8 1 -7 7 10 34 22 34 3 -1 44 -53 91 -116z"/>
<path d="M4062 8146 c-15 -16 -30 -22 -45 -19 -15 3 -18 2 -9 -4 16 -12 -31 -59 -49 -48 -7 5 -10 4 -6 -2 8 -12 -177 -165 -187 -156 -3 4 -6 1 -6 -6 0 -7 -5 -9 -12 -5 -6 4 -8 3 -5 -3 8 -12 -46 -66 -56 -56 -4 3 -7 1 -7 -6 0 -7 -5 -9 -12 -5 -6 4 -8 3 -5 -3 4 -6 -29 -45 -72 -87 -43 -42 -107 -106 -142 -144 -35 -37 -68 -67 -73 -67 -6 -1 -10 -7 -8 -14 1 -6 -13 -31 -31 -54 -19 -23 -47 -61 -62 -84 -15 -24 -32 -40 -38 -36 -5 3 -7 1 -4 -4 4 -6 -9 -40 -29 -75 -52 -91 -99 -213 -128 -330 -41 -165 -50 -263 -41 -448 4 -91 8 -184 9 -207 0 -23 3 -37 7 -32 3 6 9 -8 13 -31 3 -23 3 -46 0 -52 -4 -6 -3 -8 3 -5 6 4 15 -12 22 -39 7 -26 27 -85 46 -132 19 -46 32 -90 28 -96 -3 -6 -2 -8 2 -4 10 10 68 -89 60 -102 -3 -5 1 -12 9 -17 24 -14 157 -193 139 -186 -10 3 -15 3 -11 -1 3 -4 13 -9 22 -10 22 -3 136 -118 129 -129 -4 -6 -1 -7 6 -2 8 4 23 -3 39 -17 15 -13 45 -37 67 -53 22 -15 49 -38 60 -50 11 -11 16 -14 10 -6 -8 11 -3 10 23 -3 19 -10 30 -21 26 -28 -4 -6 -3 -8 4 -4 13 8 83 -24 76 -35 -2 -4 1 -11 7 -15 8 -4 9 -3 5 4 -10 16 -9 16 91 -22 49 -19 110 -40 135 -46 26 -7 47 -15 46 -19 -2 -17 3 -25 10 -14 6 9 29 8 102 -5 71 -12 154 -16 330 -16 236 0 356 11 532 49 79 18 91 18 83 5 -3 -5 -1 -10 4 -10 6 0 11 6 11 13 0 8 62 26 173 50 94 21 219 49 276 62 331 76 552 88 752 40 89 -22 184 -75 183 -104 0 -11 3 -21 8 -21 4 0 8 8 8 18 0 12 10 7 36 -21 19 -21 32 -42 29 -47 -3 -5 0 -12 6 -16 8 -5 10 -2 5 7 -4 8 0 5 8 -5 22 -27 53 -112 61 -166 3 -25 1 -76 -5 -115 -34 -222 -218 -374 -501 -416 -97 -14 -315 -7 -429 15 -124 23 -333 88 -318 98 9 7 7 8 -6 4 -12 -4 -105 22 -230 63 -116 38 -228 73 -248 76 -21 4 -38 11 -38 17 0 5 -3 7 -8 4 -4 -2 -59 6 -122 20 -63 13 -176 29 -250 35 -74 6 -136 15 -138 20 -2 5 -8 9 -13 9 -4 0 -6 -6 -3 -13 4 -11 -9 -14 -56 -16 -70 -2 -211 -25 -286 -47 -28 -8 -60 -12 -70 -8 -14 4 -15 3 -6 -4 11 -7 7 -12 -15 -20 -15 -5 -37 -13 -47 -18 -15 -6 -17 -4 -11 6 5 9 4 11 -4 6 -6 -4 -9 -11 -6 -15 2 -5 -13 -16 -34 -26 -22 -9 -65 -34 -97 -56 -32 -21 -61 -36 -66 -33 -5 3 -7 0 -6 -8 2 -7 -5 -12 -15 -12 -10 1 -16 -1 -13 -4 7 -6 -145 -167 -155 -165 -3 1 -6 -4 -6 -10 0 -19 -34 -67 -43 -62 -5 3 -12 0 -16 -6 -4 -8 -3 -9 4 -5 7 4 12 5 12 2 0 -13 -34 -75 -39 -72 -3 2 -7 -6 -8 -17 -2 -34 -46 -192 -54 -195 -4 -2 -5 -12 -2 -23 5 -19 6 -19 23 1 9 11 22 20 29 20 6 0 11 5 11 11 0 6 -6 7 -12 2 -7 -4 17 31 54 77 36 47 72 84 78 82 6 -1 9 2 6 7 -6 9 22 26 37 22 5 -1 6 3 3 8 -8 13 82 84 95 75 7 -4 9 -3 6 3 -16 25 310 171 355 160 10 -3 16 -2 13 3 -7 11 142 31 245 33 97 2 242 -11 236 -21 -2 -4 17 -8 43 -9 25 -1 84 -13 131 -28 123 -38 390 -147 384 -156 -2 -4 1 -11 7 -15 8 -4 9 -3 5 4 -9 16 -4 15 44 -4 23 -9 37 -21 33 -27 -4 -6 0 -8 9 -4 9 3 65 -15 124 -39 166 -69 267 -103 399 -134 109 -26 162 -34 365 -58 36 -4 88 -4 115 0 28 4 84 8 126 10 42 2 75 6 73 9 -5 9 86 20 99 12 5 -3 7 -1 3 5 -8 13 48 27 66 16 7 -4 10 -3 6 1 -5 5 13 16 40 25 26 9 83 34 127 56 44 21 86 38 92 37 7 0 11 3 8 7 -2 4 17 21 43 38 26 17 65 47 87 66 22 19 44 32 50 29 5 -4 7 -3 3 2 -4 4 21 39 54 79 43 49 68 70 82 69 16 -1 17 0 4 3 -10 3 -18 7 -18 10 0 2 16 29 36 60 43 67 85 165 110 260 15 55 19 106 20 246 0 98 -3 178 -8 178 -4 0 -8 8 -8 18 0 25 -53 162 -84 217 -31 56 -31 56 -9 48 11 -4 14 -3 9 6 -4 6 -13 10 -20 9 -18 -4 -79 69 -70 83 4 7 3 9 -2 6 -5 -3 -43 25 -83 63 -40 37 -76 69 -80 71 -3 2 -5 8 -3 12 1 5 -2 6 -6 3 -5 -3 -45 15 -88 39 -74 42 -220 105 -244 105 -6 0 -8 5 -4 12 4 7 3 8 -4 4 -6 -4 -67 5 -134 21 -116 25 -138 27 -368 27 -264 0 -351 -10 -731 -85 -313 -61 -529 -80 -704 -60 -114 13 -248 49 -238 64 4 6 1 7 -6 2 -15 -9 -101 23 -101 37 0 6 -3 9 -6 5 -11 -10 -78 29 -157 92 -80 63 -110 98 -100 114 3 6 1 7 -5 3 -13 -8 -56 56 -85 128 -12 28 -33 65 -48 83 -50 59 -90 123 -83 135 4 6 3 8 -3 5 -15 -10 -80 136 -103 233 -43 182 -36 379 21 552 41 126 125 278 144 260 5 -4 5 -2 2 4 -9 15 42 86 55 78 7 -4 8 -2 4 5 -10 15 138 168 211 218 29 20 53 38 53 41 0 15 -143 302 -150 302 -3 0 -15 -11 -28 -24z"/>
</g>
</svg>